<svg width="1024" height="1024" viewBox="0 0 1024 1024" xmlns="http://www.w3.org/2000/svg">
  <rect width="1024" height="1024" rx="210" fill="#1A3A5C"/>
  <circle cx="512" cy="450" r="420" fill="#1E4570" opacity="0.6"/>
  <circle cx="512" cy="512" r="420" fill="none" stroke="#00E5FF" stroke-width="3" opacity="0.4"/>
  <line x1="150" y1="150" x2="222" y2="150" stroke="#00E5FF" stroke-width="10" stroke-linecap="round" opacity="0.8"/>
  <line x1="150" y1="150" x2="150" y2="222" stroke="#00E5FF" stroke-width="10" stroke-linecap="round" opacity="0.8"/>
  <line x1="874" y1="150" x2="802" y2="150" stroke="#00E5FF" stroke-width="10" stroke-linecap="round" opacity="0.8"/>
  <line x1="874" y1="150" x2="874" y2="222" stroke="#00E5FF" stroke-width="10" stroke-linecap="round" opacity="0.8"/>
  <line x1="150" y1="874" x2="222" y2="874" stroke="#00E5FF" stroke-width="10" stroke-linecap="round" opacity="0.8"/>
  <line x1="150" y1="874" x2="150" y2="802" stroke="#00E5FF" stroke-width="10" stroke-linecap="round" opacity="0.8"/>
  <line x1="874" y1="874" x2="802" y2="874" stroke="#00E5FF" stroke-width="10" stroke-linecap="round" opacity="0.8"/>
  <line x1="874" y1="874" x2="874" y2="802" stroke="#00E5FF" stroke-width="10" stroke-linecap="round" opacity="0.8"/>
  <rect x="233" y="338" width="558" height="398" rx="57" fill="#1E4570" stroke="#00E5FF" stroke-width="9"/>
  <rect x="399" y="298" width="226" height="63" rx="27" fill="#1E4570" stroke="#00E5FF" stroke-width="7"/>
  <circle cx="313" cy="399" r="27" fill="#1A3A5C" stroke="#00E5FF" stroke-width="5"/>
  <circle cx="313" cy="399" r="13" fill="#00E5FF" opacity="0.8"/>
  <circle cx="512" cy="534" r="147" fill="#162F4A" stroke="#00E5FF" stroke-width="9"/>
  <circle cx="512" cy="534" r="113" fill="#112440" stroke="#00E5FF" stroke-width="4" opacity="0.7"/>
  <circle cx="512" cy="534" r="83" fill="#00E5FF" opacity="0.2"/>
  <circle cx="512" cy="534" r="57" fill="#00E5FF" opacity="0.35"/>
  <circle cx="475" cy="498" r="18" fill="#ffffff" opacity="0.45"/>
  <circle cx="540" cy="562" r="9" fill="#ffffff" opacity="0.25"/>
  <text x="512" y="826" font-family="Arial Black, sans-serif" font-size="114" font-weight="900" fill="#00E5FF" text-anchor="middle" letter-spacing="15">CW</text>
  <line x1="330" y1="846" x2="694" y2="846" stroke="#00E5FF" stroke-width="4" opacity="0.6"/>
</svg>
